Coordinates
version=1
nRows=17
nColumns=33
inDegrees=yes

Units are S.I. units (second, meters, Newtons, ...)
Angles are in degrees.

endheader
time	ground_thorax_rot_x	ground_thorax_rot_y	ground_thorax_rot_z	ground_thorax_tx	ground_thorax_ty	ground_thorax_tz	clav_prot_r	clav_elev_r	scapula_abduction_r	scapula_elevation_r	scapula_upward_rot_r	scapula_winging_r	shoulder_elv_r	plane_of_elev_r	axial_rot_r	elbow_flexion_r	pro_sup_r	wrist_flex_r	wrist_dev_r	clav_prot_l	clav_elev_l	scapula_abduction_l	scapula_elevation_l	scapula_upward_rot_l	scapula_winging_l	shoulder_elv_l	plane_of_elev_l	axial_rot_l	elbow_flexion_l	pro_sup_l	wrist_flex_l	wrist_dev_l
      3.61000000	    -40.77402432	     -3.02986688	      2.83710968	   -168.01369818	    907.42579651	     -1.45565621	      9.66976267	    -45.00000000	     40.20370434	    -45.00000000	    -29.63290217	   1699.73972839	  -2266.34575361	    148.07241917	    -98.73885648	    738.74562862	     75.98593292	     16.47188938	      3.05744644	     15.49057887	     39.18116827	    -41.06607627	    -45.00000000	    -42.14837020	   -632.16215021	  -1894.35437718	    138.34263983	    164.58055550	   1453.33851629	   -312.58098391	      4.60949060	    -21.71077377
      3.62000000	    -40.83299422	     -2.87897635	      2.76480660	   -164.83280635	    907.21732687	     -1.17511426	      9.45152298	    -45.00000000	     40.40354064	    -45.00000000	    -28.28989104	   1699.84987590	  -2266.30339778	    148.13037878	    -98.86963486	    738.92317662	     77.20904923	     16.29898839	      2.99321207	     15.68003963	     39.37235288	    -41.32997645	    -45.00000000	    -41.45043061	   -632.30368886	  -1894.41526978	    138.33433514	    165.28688091	   1453.26743612	   -313.44723293	      4.68858784	    -21.69244808
      3.63000000	    -40.91051670	     -2.82676683	      2.68908820	   -161.48305957	    906.58656172	     -0.88891633	      9.33950276	    -45.00000000	     40.69266299	    -45.00000000	    -27.12830282	   1700.01719551	  -2266.35589899	    148.13702769	    -99.16054691	    739.03471529	     78.29755655	     16.10982365	      2.95763729	     15.64486333	     39.55874499	    -41.49780908	    -45.00000000	    -40.76074450	   -632.33766905	  -1894.49863366	    138.19332429	    165.95307791	   1453.16277214	   -314.57155801	      4.88390638	    -21.74615222
      3.64000000	    -40.99095336	     -2.76663989	      2.60648185	   -157.96601307	    905.50633598	     -0.59835622	      9.20682454	    -45.00000000	     40.92538317	    -45.00000000	    -26.03473091	   1700.22762223	  -2266.42550157	    148.12014857	    -99.57787909	    739.14659406	     79.30848506	     15.95068983	      2.93612436	     15.64633290	     39.77328914	    -41.69030913	    -45.00000000	    -39.98154555	   -632.40835936	  -1894.65908267	    138.12757878	    166.46820463	   1453.03912579	   -316.04061105	      5.12784695	    -21.80591425
      3.65000000	    -41.06441959	     -2.69866709	      2.54376765	   -154.28283114	    903.96076085	     -0.30521860	      9.03926127	    -45.00000000	     41.17733326	    -45.00000000	    -24.85671219	   1700.43918453	  -2266.57547319	    148.16817115	    -99.89923903	    739.26993189	     80.20286787	     15.81430874	      2.92453522	     15.72676424	     39.99441319	    -41.89589574	    -45.00000000	    -39.28249843	   -632.54024399	  -1894.83595181	    138.03208520	    167.06828962	   1452.87249981	   -317.90095421	      5.44946710	    -21.88156556
      3.66000000	    -41.11215765	     -2.61940157	      2.49210068	   -150.44625700	    901.94903667	     -0.01293371	      8.83865551	    -45.00000000	     41.35930983	    -45.00000000	    -23.56495156	   1700.64846044	  -2266.76549964	    148.20699644	   -100.07249417	    739.35471897	     81.00687068	     15.68110902	      2.92783664	     15.88273967	     40.18829990	    -42.10999576	    -45.00000000	    -38.61054081	   -632.80706548	  -1895.01409796	    137.97259597	    167.72920117	   1452.62673155	   -320.28607886	      5.87176375	    -21.96004463
      3.67000000	    -41.20107729	     -2.63092178	      2.47587460	   -146.46014704	    899.47711905	      0.27597950	      8.67050472	    -45.00000000	     41.57062302	    -45.00000000	    -22.47038389	   1700.88762149	  -2267.05411709	    148.25811502	   -100.44717395	    739.45745666	     81.67929051	     15.59546836	      2.94596957	     15.99014620	     40.38375531	    -42.30191269	    -45.00000000	    -37.97952552	   -632.98589320	  -1895.21480622	    137.87229113	    168.31762088	   1452.35900711	   -323.09619810	      6.37565718	    -22.03126399
      3.68000000	    -41.23003443	     -2.62814027	      2.46077275	   -142.33468243	    896.56061692	      0.55858364	      8.52431380	    -45.00000000	     41.79108402	    -45.00000000	    -21.48473796	   1701.17147661	  -2267.32085343	    148.29281329	   -100.88365355	    739.50048869	     82.19905342	     15.53276534	      2.98398843	     16.05281913	     40.59247533	    -42.49280010	    -45.00000000	    -37.37785582	   -633.27644662	  -1895.52235970	    137.79382027	    168.92725145	   1452.04666967	   -326.23478568	      6.98690594	    -22.09553599
      3.69000000	    -41.27725596	     -2.60906881	      2.42786420	   -138.07809657	    893.22033906	      0.83224729	      8.33134332	    -45.00000000	     41.90721248	    -45.00000000	    -20.50485741	   1701.45134129	  -2267.68107715	    148.29074213	   -101.30236508	    739.53069554	     82.55373224	     15.46968916	      3.02507981	     16.21890969	     40.71587139	    -42.69192097	    -45.00000000	    -36.86787683	   -633.64408095	  -1895.73814213	    137.73705221	    169.70411199	   1451.72971781	   -329.92331894	      7.74219454	    -22.14058084
      3.70000000	    -41.29267222	     -2.71393525	      2.46603701	   -133.68995708	    889.47699244	      1.09464544	      8.20819627	    -45.00000000	     42.16035810	    -45.00000000	    -19.67843329	   1701.79277100	  -2268.06985558	    148.39520088	   -101.88110688	    739.53334971	     82.67659014	     15.53589907	      3.10214121	     16.33794866	     40.96100738	    -42.82971380	    -45.00000000	    -36.39191822	   -633.94312832	  -1896.13192834	    137.59557922	    170.23565423	   1451.36667331	   -333.46263749	      8.41276871	    -22.07012528
      3.71000000	    -41.35351808	     -2.90809877	      2.54216880	   -129.18958563	    885.37200666	      1.34292443	      8.13623825	    -45.00000000	     42.39414969	    -45.00000000	    -19.13209782	   1702.16137085	  -2268.42778097	    148.42513087	   -102.63929276	    739.57707165	     82.53994037	     15.59551242	      3.16564763	     16.26215303	     41.19889508	    -42.98379861	    -45.00000000	    -35.86405170	   -634.14879883	  -1896.54535776	    137.47581135	    170.58826050	   1451.06838779	   -336.71883497	      9.05898805	    -21.96897275
      3.72000000	    -41.35606004	     -2.87979165	      2.52283360	   -124.57655956	    880.93436828	      1.57631155	      7.95439561	    -45.00000000	     42.51361877	    -45.00000000	    -18.31243059	   1702.49301491	  -2268.90226566	    148.48136222	   -103.35389641	    739.43625060	     82.10236884	     15.71481068	      3.27800330	     16.50187610	     41.42324538	    -43.18869564	    -45.00000000	    -35.24781640	   -634.63181329	  -1896.93505431	    137.46031067	    171.08956554	   1450.72421610	   -340.01924443	      9.75502112	    -21.78122797
      3.73000000	    -41.35548717	     -2.92730545	      2.50676302	   -119.86821256	    876.21465667	      1.79488331	      7.79620638	    -45.00000000	     42.72671008	    -45.00000000	    -17.59659143	   1702.83106078	  -2269.42015880	    148.53231240	   -103.95860264	    739.33574562	     81.24607801	     15.83102768	      3.38150183	     16.70802997	     41.55324360	    -43.35705731	    -45.00000000	    -34.98895659	   -635.09276418	  -1897.25306223	    137.28156563	    171.96284672	   1450.44070140	   -343.15620794	     10.50263225	    -21.56545715
      3.74000000	    -41.34686440	     -3.10058550	      2.61213395	   -115.07756698	    871.26064274	      2.00085040	      7.70556032	    -45.00000000	     42.93350127	    -45.00000000	    -17.10442826	   1703.21001917	  -2269.91232400	    148.62057887	   -104.75752696	    739.17536035	     80.02437268	     16.02205899	      3.52103019	     16.78198372	     41.72735463	    -43.52012229	    -45.00000000	    -34.82195582	   -635.52942941	  -1897.60721003	    137.09159747	    172.76800811	   1450.13323994	   -345.65868380	     11.09293175	    -21.31282846
      3.75000000	    -41.32196184	     -3.51513551	      2.94312949	   -110.22675099	    866.12859519	      2.19873175	      7.68832735	    -45.00000000	     42.98083698	    -45.00000000	    -17.34221133	   1703.80445130	  -2270.22061638	    148.67517713	   -106.00888667	    739.06148612	     78.45793636	     16.32103039	      3.68239691	     16.87432861	     41.88308423	    -43.62999135	    -45.00000000	    -34.82067114	   -635.84363851	  -1898.07128023	    136.83120490	    173.42145559	   1449.84116402	   -347.47078574	     11.40114056	    -21.05011383
      3.76000000	    -41.31231717	     -3.35461133	      2.73376883	   -105.33772464	    860.86976872	      2.39464540	      7.48107210	    -45.00000000	     43.33181558	    -45.00000000	    -16.16599855	   1704.02873290	  -2270.93841566	    148.79377109	   -106.60373291	    738.63593170	     76.19717902	     16.57225360	      3.92418265	     17.10765043	     42.07994394	    -43.84776972	    -45.00000000	    -34.40967570	   -636.49617994	  -1898.35951843	    136.74225565	    174.40794170	   1449.59755382	   -348.98247769	     12.00072252	    -20.77407542
      3.77000000	    -41.26747134	     -3.45714311	      2.78069165	   -100.43855985	    855.54271388	      2.59613212	      7.35493806	    -45.00000000	     43.54839951	    -45.00000000	    -15.67953594	   1704.39982441	  -2271.46393020	    148.88362106	   -107.51986988	    738.26470862	     73.39943765	     16.89272427	      4.19248875	     17.28946581	     42.22429296	    -44.02114877	    -45.00000000	    -34.26951094	   -637.05005875	  -1898.70654469	    136.57394577	    175.32692335	   1449.36610325	   -350.00861208	     12.39541934	    -20.50813094
